<svg xmlns="http://www.w3.org/2000/svg" xmlns:xlink="http://www.w3.org/1999/xlink" width="500" zoomAndPan="magnify" viewBox="0 0 375 374.999991" height="500" preserveAspectRatio="xMidYMid meet" version="1.0"><defs><clipPath id="74231b1c67"><path d="M 2.75 2.75 L 372.5 2.75 L 372.5 372.5 L 2.75 372.5 Z M 2.75 2.75 " clip-rule="nonzero"/></clipPath></defs><g clip-path="url(#74231b1c67)"><path fill="#a39259" d="M 237.546875 253.515625 L 282.148438 253.515625 C 322.925781 253.515625 343.316406 275.832031 343.316406 314.292969 L 343.316406 314.304688 C 343.320312 314.492188 343.550781 329.84375 338.464844 342.046875 C 333.347656 354.332031 314.996094 363.03125 298.035156 354.332031 C 281.078125 345.632812 268.457031 334.675781 240.460938 280.941406 L 201.082031 205.328125 C 194.355469 192.695312 182.421875 185.28125 168.574219 181.109375 C 167.484375 180.78125 167.582031 178.976562 168.703125 178.761719 C 210.046875 170.875 235.71875 136.109375 235.71875 97.859375 C 235.71875 42.695312 182.101562 2.75 114.726562 2.75 C 45.453125 2.75 2.75 45.550781 2.75 101.664062 C 2.75 147.90625 32.183594 177.761719 76.210938 178.21875 C 76.777344 178.222656 77.242188 177.765625 77.242188 177.199219 L 77.242188 176.871094 C 77.242188 176.304688 76.785156 175.847656 76.21875 175.832031 C 48.128906 174.957031 21.730469 138.242188 21.730469 95.957031 C 21.730469 46.023438 59.214844 7.03125 115.199219 7.03125 C 174.035156 7.03125 203.453125 49.828125 203.453125 99.285156 C 203.453125 140.179688 183.523438 175.847656 147.464844 175.847656 L 120.019531 175.847656 C 119.453125 175.847656 118.996094 175.386719 118.996094 174.824219 L 118.996094 89.773438 C 118.996094 74.71875 118.996094 55.015625 141.042969 54.589844 C 141.4375 54.582031 141.769531 54.265625 141.769531 53.871094 C 141.769531 53.476562 141.453125 53.15625 141.058594 53.15625 L 67.992188 53.15625 C 67.597656 53.15625 67.277344 53.476562 67.277344 53.871094 C 67.277344 54.265625 67.613281 54.582031 68.007812 54.589844 C 90.054688 55.015625 90.054688 74.71875 90.054688 89.773438 L 90.054688 254.308594 C 90.054688 269.363281 90.054688 289.070312 68.007812 289.492188 C 67.613281 289.5 67.277344 289.820312 67.277344 290.210938 C 67.277344 290.605469 67.597656 290.925781 67.992188 290.925781 L 141.058594 290.925781 C 141.453125 290.925781 141.769531 290.605469 141.769531 290.210938 C 141.769531 289.820312 141.4375 289.5 141.042969 289.492188 C 118.996094 289.070312 118.996094 269.363281 118.996094 254.308594 L 118.996094 181.625 C 118.996094 181.058594 119.46875 180.601562 120.035156 180.601562 C 149.527344 180.691406 156.609375 184.652344 167.867188 205.804688 L 220.058594 305.667969 C 245.203125 353.6875 275.085938 372.234375 311.613281 372.242188 C 311.625 372.242188 311.625 372.242188 311.636719 372.242188 C 312.054688 372.226562 338.597656 371.085938 355.355469 354.332031 C 372.242188 337.441406 372.242188 314.304688 372.242188 314.304688 C 372.242188 281.4375 350.085938 259.242188 313.039062 252.570312 C 311.898438 252.367188 311.820312 250.46875 312.9375 250.15625 C 340.320312 242.464844 355.15625 221.628906 355.648438 194.148438 C 356.292969 157.941406 330.039062 134.785156 284.519531 134.785156 L 236.808594 134.785156 C 236.390625 134.785156 236.011719 135.039062 235.851562 135.429688 C 235.320312 136.714844 234.960938 137.449219 234.636719 138.167969 C 234.339844 138.820312 234.832031 139.535156 235.546875 139.535156 L 282.148438 139.535156 C 314.394531 139.535156 325.921875 165.949219 326.722656 193.199219 C 327.550781 221.460938 313.917969 249.421875 282.148438 249.421875 L 236.625 249.421875 C 235.902344 249.421875 235.414062 250.164062 235.707031 250.828125 L 236.609375 252.898438 C 236.773438 253.273438 237.140625 253.515625 237.546875 253.515625 Z M 237.546875 253.515625 " fill-opacity="1" fill-rule="nonzero"/></g></svg>